<svg width="12" height="13" viewBox="0 0 12 13" fill="none" xmlns="http://www.w3.org/2000/svg">
<g id="eye-outline">
<g id="Vector">
<path d="M6 9.07143C5.52532 9.07143 5.06131 8.92062 4.66663 8.63806C4.27195 8.35551 3.96434 7.95391 3.78269 7.48404C3.60104 7.01418 3.55351 6.49715 3.64612 5.99834C3.73872 5.49953 3.9673 5.04135 4.30294 4.68173C4.63859 4.3221 5.06623 4.0772 5.53178 3.97798C5.99734 3.87876 6.4799 3.92968 6.91844 4.12431C7.35698 4.31893 7.73181 4.64852 7.99553 5.07139C8.25924 5.49426 8.4 5.99142 8.4 6.5C8.4 7.18198 8.14714 7.83604 7.69706 8.31827C7.24697 8.80051 6.63652 9.07143 6 9.07143ZM6 5.21429C5.76266 5.21429 5.53065 5.28969 5.33332 5.43097C5.13598 5.57224 4.98217 5.77305 4.89134 6.00798C4.80052 6.24291 4.77676 6.50143 4.82306 6.75083C4.86936 7.00023 4.98365 7.22933 5.15147 7.40914C5.3193 7.58895 5.53311 7.7114 5.76589 7.76101C5.99867 7.81062 6.23995 7.78516 6.45922 7.68785C6.67849 7.59053 6.86591 7.42574 6.99776 7.2143C7.12962 7.00287 7.2 6.75429 7.2 6.5C7.2 6.15901 7.07357 5.83198 6.84853 5.59086C6.62348 5.34974 6.31826 5.21429 6 5.21429Z" fill="#6B7280"/>
<path d="M6 11C2.1276 11 0 7.61986 0 6.5C0 5.43029 2.7672 2 6 2C9.2328 2 12 5.43029 12 6.5C12 7.61986 9.8724 11 6 11ZM1.2078 6.518C1.63468 7.48846 2.31394 8.30628 3.16401 8.87326C4.01408 9.44023 4.99882 9.73226 6 9.71429C7.00118 9.73226 7.98592 9.44023 8.83599 8.87326C9.68606 8.30628 10.3653 7.48846 10.7922 6.518C10.5744 5.89443 8.553 3.28571 6 3.28571C3.447 3.28571 1.4256 5.89443 1.2078 6.518Z" fill="#6B7280"/>
</g>
</g>
</svg>
