<svg width="94" height="17" viewBox="0 0 94 17" fill="none" xmlns="http://www.w3.org/2000/svg">
<g id="Frame 13">
<path id="Vector" d="M87.8999 0.399994C89.6727 0.399994 91.5372 0.950183 92.6376 1.8366V4.8932C91.2621 3.73169 89.7644 3.05924 88.0221 3.05924C86.0659 3.05924 85.1489 3.88452 85.1489 4.92376C85.1489 6.05471 86.2799 6.6049 88.3584 7.21622C90.8342 7.91923 93.4323 8.77508 93.4323 11.8623C93.4323 14.766 91.1704 16.6 87.6554 16.6C85.638 16.6 83.6512 15.9887 82.2146 14.8272V11.526C83.7123 13.0543 85.3323 13.9407 87.4414 13.9407C89.5199 13.9407 90.5591 13.0849 90.5591 11.8928C90.5591 10.6396 89.3365 10.2117 87.1052 9.53923C84.6599 8.77508 82.2452 7.8581 82.2452 5.07659C82.2452 2.38679 84.4765 0.399994 87.8999 0.399994Z" fill="#054587"/>
<path id="Vector (Stroke)" fill-rule="evenodd" clip-rule="evenodd" d="M92.8202 1.74926V5.28613L92.52 5.03261C91.1694 3.89214 89.712 3.24171 88.0223 3.24171C87.0668 3.24171 86.3901 3.44368 85.9577 3.75059C85.5313 4.0532 85.3315 4.4643 85.3315 4.92375C85.3315 5.41055 85.567 5.77996 86.0743 6.11218C86.5917 6.45106 87.37 6.73524 88.4092 7.04089C89.6428 7.39122 90.9417 7.78796 91.9302 8.49687C92.9328 9.21585 93.6149 10.2548 93.6149 11.8622C93.6149 13.3657 93.0272 14.6032 91.9776 15.4613C90.9319 16.3162 89.443 16.7825 87.6555 16.7825C85.6042 16.7825 83.5747 16.1614 82.1 14.969L82.0322 14.9143V11.0791L82.345 11.3983C83.8185 12.9019 85.3942 13.7582 87.4415 13.7582C88.459 13.7582 89.1971 13.5483 89.6753 13.2142C90.1466 12.885 90.3768 12.4286 90.3768 11.8928C90.3768 11.6115 90.3088 11.3854 90.181 11.1913C90.0514 10.9948 89.8531 10.8201 89.5757 10.6551C89.0143 10.3212 88.1748 10.0521 87.0526 9.71394L87.0508 9.71341C85.8307 9.33212 84.5872 8.90432 83.6498 8.21113C82.7004 7.50909 82.0628 6.53286 82.0628 5.07658C82.0628 3.67772 82.6445 2.45766 83.6711 1.59022C84.6957 0.724421 86.1537 0.217499 87.9 0.217499C89.7016 0.217499 91.6106 0.774871 92.7522 1.69448L92.8202 1.74926ZM88.3585 7.2162C86.28 6.60488 85.1491 6.0547 85.1491 4.92375C85.1491 3.88451 86.066 3.05923 88.0223 3.05923C89.6878 3.05923 91.1298 3.67374 92.4552 4.74256C92.5163 4.79181 92.5771 4.84202 92.6377 4.89319V1.83659C91.5373 0.950171 89.6728 0.399982 87.9 0.399982C84.4766 0.399982 82.2453 2.38677 82.2453 5.07658C82.2453 7.85809 84.66 8.77507 87.1053 9.53922C89.3366 10.2117 90.5592 10.6396 90.5592 11.8928C90.5592 13.0849 89.52 13.9407 87.4415 13.9407C85.4178 13.9407 83.8444 13.1246 82.3972 11.7084C82.3361 11.6487 82.2753 11.5879 82.2147 11.526V14.8271C83.6513 15.9887 85.6381 16.6 87.6555 16.6C91.1706 16.6 93.4324 14.766 93.4324 11.8622C93.4324 8.77507 90.8343 7.91922 88.3585 7.2162Z" fill="#0A3A70"/>
<path id="Vector_2" d="M75.6991 13.9102C74.8127 15.5302 73.2538 16.6 70.6863 16.6C67.1712 16.6 64.6953 14.2158 64.6953 10.12V0.766785H67.6602V9.99772C67.6602 12.5653 69.3108 13.8796 71.2976 13.8796C74.507 13.8796 75.638 10.9147 75.638 8.62225V0.766785H78.6029V16.2332H75.6991V13.9102Z" fill="#054587"/>
<path id="Vector (Stroke)_2" fill-rule="evenodd" clip-rule="evenodd" d="M64.5127 0.58429H67.8426V9.99771C67.8426 11.2409 68.2411 12.1616 68.8616 12.7713C69.4833 13.3823 70.3441 13.6971 71.2974 13.6971C72.8354 13.6971 73.8659 12.9913 74.5192 12.0095C75.1781 11.0194 75.4553 9.74306 75.4553 8.62224V0.58429H78.7852V16.4157H75.5165V14.5496C75.0998 15.1425 74.5722 15.6441 73.9136 16.021C73.0597 16.5095 71.9956 16.7825 70.6861 16.7825C68.8862 16.7825 67.3381 16.1711 66.2405 15.022C65.1434 13.8734 64.5127 12.2048 64.5127 10.12V0.58429ZM75.5165 14.2206C75.5802 14.1195 75.641 14.016 75.6989 13.9102V16.2332H78.6027V0.766773H75.6378V8.62224C75.6378 10.9147 74.5069 13.8796 71.2974 13.8796C69.3107 13.8796 67.6601 12.5653 67.6601 9.99771V0.766773H64.6952V10.12C64.6952 14.2158 67.171 16.6 70.6861 16.6C73.0859 16.6 74.6045 15.6654 75.5165 14.2206Z" fill="#0A3A70"/>
<path id="Vector_3" d="M56.306 16.2332H53.6162L47.2891 0.766785H50.4679L54.9611 12.2596L59.4543 0.766785H62.6332L56.306 16.2332Z" fill="#054587"/>
<path id="Vector (Stroke)_3" fill-rule="evenodd" clip-rule="evenodd" d="M56.4286 16.4157H53.4938L47.0173 0.58429H50.5926L54.9612 11.7584L59.3298 0.58429H62.9051L56.4286 16.4157ZM59.4544 0.766773H62.6333L56.3061 16.2332H53.6163L47.2891 0.766773H50.468L54.9612 12.2596L59.4544 0.766773Z" fill="#0A3A70"/>
<path id="Vector_4" d="M33.7743 1.92829C35.0275 1.07245 36.9532 0.399994 39.0317 0.399994C42.9747 0.399994 45.42 2.69244 45.42 6.2381V16.2332H42.669V13.849C41.5686 15.683 39.7652 16.6 37.6256 16.6C34.7524 16.6 32.6128 14.7049 32.6128 12.1373C32.6128 9.3864 34.6607 7.8581 38.3898 7.33848L42.4551 6.75773V6.17697C42.4551 4.25131 41.1101 3.0898 38.8483 3.0898C36.8003 3.0898 34.9358 4.03735 33.7743 4.8932V1.92829ZM38.1147 14.0936C40.6211 14.0936 42.5162 12.0151 42.5162 9.84489V9.05018L38.8483 9.50867C36.7086 9.78376 35.5166 10.609 35.5166 11.9539C35.5166 13.2683 36.5864 14.0936 38.1147 14.0936Z" fill="#054587"/>
<path id="Vector (Stroke)_4" fill-rule="evenodd" clip-rule="evenodd" d="M33.5917 1.83193L33.6713 1.77759C34.9553 0.900703 36.9169 0.217499 39.0315 0.217499C41.0379 0.217499 42.6827 0.801134 43.8279 1.85515C44.9746 2.91062 45.6023 4.42145 45.6023 6.23809V16.4157H42.4864V14.4512C41.3355 16.0064 39.6163 16.7825 37.6255 16.7825C34.6723 16.7825 32.4302 14.8253 32.4302 12.1373C32.4302 10.7095 32.9649 9.58651 33.988 8.75926C35.0026 7.93885 36.4841 7.41978 38.3641 7.15778C38.3642 7.15776 38.3643 7.15775 38.3645 7.15773L42.2724 6.59945V6.17696C42.2724 5.25941 41.9538 4.54129 41.3809 4.04975C40.8044 3.55511 39.9497 3.27228 38.8481 3.27228C36.8531 3.27228 35.026 4.19742 33.8824 5.0401L33.5917 5.25432V1.83193ZM42.4549 6.75771L38.3896 7.33847C34.6606 7.85809 32.6127 9.38639 32.6127 12.1373C32.6127 14.7049 34.7523 16.6 37.6255 16.6C39.6507 16.6 41.3747 15.7784 42.4864 14.1353C42.5492 14.0425 42.61 13.9471 42.6689 13.849V16.2332H45.4198V6.23809C45.4198 2.69243 42.9745 0.399982 39.0315 0.399982C36.953 0.399982 35.0274 1.07243 33.7742 1.92828V4.89319C33.8332 4.84969 33.8941 4.80595 33.9567 4.76212C35.1257 3.94347 36.9043 3.08979 38.8481 3.08979C41.11 3.08979 42.4549 4.2513 42.4549 6.17696V6.75771ZM38.1145 13.9111C40.5193 13.9111 42.3336 11.9151 42.3336 9.84488V9.25688L38.8714 9.68965C38.8713 9.68966 38.8712 9.68968 38.8711 9.68969C37.8161 9.82537 37.0174 10.0944 36.4868 10.478C35.9644 10.8557 35.6989 11.3453 35.6989 11.9539C35.6989 12.5569 35.9421 13.0393 36.3571 13.3747C36.7758 13.7131 37.3816 13.9111 38.1145 13.9111ZM38.8481 9.50865L42.5161 9.05017V9.84488C42.5161 12.0151 40.621 14.0936 38.1145 14.0936C36.5862 14.0936 35.5164 13.2683 35.5164 11.9539C35.5164 10.609 36.7085 9.78375 38.8481 9.50865Z" fill="#0A3A70"/>
<path id="Vector_5" d="M25.0342 0.399994C26.807 0.399994 28.6715 0.950183 29.7719 1.8366V4.8932C28.3964 3.73169 26.8987 3.05924 25.1564 3.05924C23.2002 3.05924 22.2832 3.88452 22.2832 4.92376C22.2832 6.05471 23.4142 6.6049 25.4926 7.21622C27.9685 7.91923 30.5666 8.77508 30.5666 11.8623C30.5666 14.766 28.3047 16.6 24.7896 16.6C22.7723 16.6 20.7855 15.9887 19.3489 14.8272V11.526C20.8466 13.0543 22.4666 13.9407 24.5757 13.9407C26.6542 13.9407 27.6934 13.0849 27.6934 11.8928C27.6934 10.6396 26.4708 10.2117 24.2394 9.53923C21.7942 8.77508 19.3794 7.8581 19.3794 5.07659C19.3794 2.38679 21.6108 0.399994 25.0342 0.399994Z" fill="#054587"/>
<path id="Vector (Stroke)_5" fill-rule="evenodd" clip-rule="evenodd" d="M29.9545 1.74926V5.28613L29.6543 5.03261C28.3037 3.89214 26.8463 3.24171 25.1565 3.24171C24.201 3.24171 23.5244 3.44368 23.092 3.75059C22.6656 4.0532 22.4658 4.4643 22.4658 4.92375C22.4658 5.41055 22.7013 5.77996 23.2086 6.11218C23.726 6.45106 24.5043 6.73524 25.5434 7.04089C26.7771 7.39122 28.076 7.78796 29.0645 8.49687C30.0671 9.21585 30.7492 10.2548 30.7492 11.8622C30.7492 13.3657 30.1615 14.6032 29.1119 15.4613C28.0661 16.3162 26.5773 16.7825 24.7897 16.7825C22.7385 16.7825 20.709 16.1614 19.2343 14.969L19.1665 14.9143V11.0791L19.4793 11.3983C20.9528 12.9019 22.5285 13.7582 24.5758 13.7582C25.5933 13.7582 26.3313 13.5483 26.8096 13.2142C27.2808 12.885 27.511 12.4286 27.511 11.8928C27.511 11.6115 27.4431 11.3854 27.3152 11.1913C27.1857 10.9948 26.9874 10.8201 26.71 10.6551C26.1486 10.3212 25.3091 10.0521 24.1869 9.71394L24.1851 9.71341C22.965 9.33212 21.7215 8.90432 20.7841 8.21113C19.8347 7.50909 19.1971 6.53286 19.1971 5.07658C19.1971 3.67772 19.7788 2.45766 20.8054 1.59022C21.83 0.724421 23.288 0.217499 25.0343 0.217499C26.8359 0.217499 28.7449 0.774871 29.8865 1.69448L29.9545 1.74926ZM25.4928 7.2162C23.4143 6.60488 22.2833 6.0547 22.2833 4.92375C22.2833 3.88451 23.2003 3.05923 25.1565 3.05923C26.822 3.05923 28.2641 3.67374 29.5895 4.74256C29.6506 4.79181 29.7114 4.84202 29.772 4.89319V1.83659C28.6716 0.950171 26.8071 0.399982 25.0343 0.399982C21.6109 0.399982 19.3796 2.38677 19.3796 5.07658C19.3796 7.85809 21.7943 8.77507 24.2396 9.53922C26.4709 10.2117 27.6935 10.6396 27.6935 11.8928C27.6935 13.0849 26.6543 13.9407 24.5758 13.9407C22.5521 13.9407 20.9787 13.1246 19.5315 11.7084C19.4704 11.6487 19.4096 11.5879 19.349 11.526V14.8271C20.7856 15.9887 22.7724 16.6 24.7897 16.6C28.3048 16.6 30.5667 14.766 30.5667 11.8622C30.5667 8.77507 27.9686 7.91922 25.4928 7.2162Z" fill="#0A3A70"/>
<path id="Vector_6" d="M9.0083 0.399994C13.5932 0.399994 17.0166 3.94565 17.0166 8.49999C17.0166 13.0543 13.5932 16.6 9.0083 16.6C4.42339 16.6 1 13.0543 1 8.49999C1 3.94565 4.42339 0.399994 9.0083 0.399994ZM9.0083 3.21207C6.07396 3.21207 4.02604 5.62678 4.02604 8.49999C4.02604 11.3732 6.07396 13.7879 9.0083 13.7879C11.9426 13.7879 13.9906 11.3732 13.9906 8.49999C13.9906 5.62678 11.9426 3.21207 9.0083 3.21207Z" fill="#054587"/>
<path id="Vector (Stroke)_6" fill-rule="evenodd" clip-rule="evenodd" d="M9.00841 0.217499C13.6973 0.217499 17.1992 3.84806 17.1992 8.49998C17.1992 13.1519 13.6973 16.7825 9.00841 16.7825C4.31955 16.7825 0.817627 13.1519 0.817627 8.49998C0.817627 3.84806 4.31955 0.217499 9.00841 0.217499ZM9.00841 3.39454C6.19018 3.39454 4.20863 5.71151 4.20863 8.49998C4.20863 11.2884 6.19018 13.6054 9.00841 13.6054C11.8266 13.6054 13.8082 11.2884 13.8082 8.49998C13.8082 5.71151 11.8266 3.39454 9.00841 3.39454ZM17.0167 8.49998C17.0167 3.94564 13.5933 0.399982 9.00841 0.399982C4.4235 0.399982 1.00011 3.94564 1.00011 8.49998C1.00011 13.0543 4.4235 16.6 9.00841 16.6C13.5933 16.6 17.0167 13.0543 17.0167 8.49998ZM4.02615 8.49998C4.02615 5.62677 6.07407 3.21206 9.00841 3.21206C11.9427 3.21206 13.9907 5.62677 13.9907 8.49998C13.9907 11.3732 11.9427 13.7879 9.00841 13.7879C6.07407 13.7879 4.02615 11.3732 4.02615 8.49998Z" fill="#0A3A70"/>
</g>
</svg>
