<svg width="21" height="20" viewBox="0 0 21 20" fill="none" xmlns="http://www.w3.org/2000/svg">
<path d="M19.5003 10.4001C19.5003 9.76441 19.4488 9.1253 19.3388 8.49993H10.5183V12.101H15.5694C15.3598 13.2624 14.6863 14.2898 13.7002 14.9426V17.2792H16.7136C18.4832 15.6504 19.5003 13.2452 19.5003 10.4001Z" fill="#4285F4"/>
<path d="M10.5183 19.5367C13.0404 19.5367 15.1674 18.7086 16.7171 17.2792L13.7036 14.9426C12.8652 15.513 11.7828 15.836 10.5218 15.836C8.08214 15.836 6.01361 14.1901 5.27141 11.9773H2.16174V14.386C3.74922 17.5437 6.98259 19.5367 10.5183 19.5367Z" fill="#34A853"/>
<path d="M5.26798 11.9772C4.87627 10.8158 4.87627 9.55823 5.26798 8.39683V5.98813H2.16175C0.835413 8.63049 0.835404 11.7436 2.16174 14.386L5.26798 11.9772Z" fill="#FBBC04"/>
<path d="M10.5183 4.53465C11.8515 4.51403 13.1401 5.0157 14.1056 5.93657L16.7755 3.26672C15.0849 1.67925 12.8411 0.806477 10.5183 0.833966C6.98259 0.833966 3.74923 2.82691 2.16175 5.98813L5.26798 8.39683C6.00674 6.18055 8.0787 4.53465 10.5183 4.53465Z" fill="#EA4335"/>
</svg>
