<svg width="20" height="20" viewBox="0 0 20 20" fill="none" xmlns="http://www.w3.org/2000/svg">
<g id="LinkedIn " clip-path="url(#clip0_37_133)">
<path id="Vector" d="M17.8135 0.833336H2.18685C1.82792 0.833336 1.48369 0.975921 1.22989 1.22973C0.976082 1.48353 0.833496 1.82776 0.833496 2.18669V17.8133C0.833496 18.1722 0.976082 18.5165 1.22989 18.7703C1.48369 19.0241 1.82792 19.1667 2.18685 19.1667H17.8135C18.1724 19.1667 18.5166 19.0241 18.7704 18.7703C19.0242 18.5165 19.1668 18.1722 19.1668 17.8133V2.18669C19.1668 1.82776 19.0242 1.48353 18.7704 1.22973C18.5166 0.975921 18.1724 0.833336 17.8135 0.833336ZM6.29785 16.451H3.54148V7.6956H6.29785V16.451ZM4.91776 6.48229C4.60509 6.48053 4.29996 6.38619 4.04086 6.21118C3.78177 6.03617 3.58032 5.78832 3.46194 5.49893C3.34357 5.20954 3.31357 4.89157 3.37574 4.58514C3.43791 4.27872 3.58946 3.99757 3.81125 3.7772C4.03305 3.55682 4.31516 3.40708 4.62198 3.34688C4.92879 3.28668 5.24657 3.31872 5.5352 3.43895C5.82382 3.55918 6.07037 3.76221 6.24371 4.02243C6.41706 4.28264 6.50944 4.58838 6.50919 4.90104C6.51214 5.11038 6.47291 5.31816 6.39385 5.51201C6.31479 5.70585 6.19751 5.8818 6.049 6.02936C5.90049 6.17692 5.7238 6.29307 5.52945 6.37088C5.33509 6.4487 5.12706 6.48659 4.91776 6.48229ZM16.4576 16.4587H13.7025V11.6755C13.7025 10.2648 13.1028 9.8294 12.3288 9.8294C11.5114 9.8294 10.7093 10.4456 10.7093 11.7111V16.4587H7.95294V7.70197H10.6036V8.91528H10.6393C10.9054 8.37674 11.8373 7.45625 13.2594 7.45625C14.7974 7.45625 16.4588 8.3691 16.4588 11.0427L16.4576 16.4587Z" fill="#0A66C2"/>
</g>
<defs>
<clipPath id="clip0_37_133">
<rect width="20" height="20" fill="white"/>
</clipPath>
</defs>
</svg>
