<svg width="24" height="25" viewBox="0 0 24 25" fill="none" xmlns="http://www.w3.org/2000/svg">
<g id="icon-osavus/Default">
<path id="Vector" d="M0 0.5L7.75778 8.25778C8.84333 7.17222 10.3433 6.5 12 6.5C15.3133 6.5 18 9.18667 18 12.5C18 14.1567 17.3289 15.6567 16.2422 16.7422L24 24.5V0.5H0Z" fill="#FF5A1F"/>
<path id="Vector_2" d="M12 6.5C13.6567 6.5 15.1567 7.17111 16.2422 8.25778L24 0.5H0V24.5L7.75778 16.7422C6.67222 15.6567 6 14.1567 6 12.5C6 9.18667 8.68667 6.5 12 6.5Z" fill="#FF8A4C"/>
<path id="Vector_3" d="M12 21.5C15.0422 21.5 17.8178 22.6344 19.9333 24.5H24L16.2422 16.7422C15.1567 17.8278 13.6567 18.5 12 18.5C8.68667 18.5 6 15.8133 6 12.5C6 10.8433 6.67111 9.34333 7.75778 8.25778L0 0.5V24.5H4.06667C6.18222 22.6344 8.95778 21.5 12 21.5Z" fill="#054587"/>
<path id="Subtract" fill-rule="evenodd" clip-rule="evenodd" d="M3.6239 8.93723C4.09554 7.84315 4.77972 6.8536 5.63675 6.02597L7.7747 8.23989C6.67859 9.32703 5.99977 10.8343 5.99977 12.5C5.99977 14.1182 6.64037 15.5868 7.6818 16.666L5.49369 18.8328C4.65536 17.9862 3.99345 16.9817 3.54637 15.8773C3.09929 14.773 2.87593 13.5908 2.88923 12.3995C2.90254 11.2082 3.15226 10.0313 3.6239 8.93723Z" fill="#0A83ED"/>
<path id="Subtract_2" fill-rule="evenodd" clip-rule="evenodd" d="M15.4662 4.24146C16.5595 4.71501 17.5478 5.40091 18.374 6.25938L16.2696 8.28442C15.1818 7.18274 13.6707 6.5 12.0001 6.5C10.3291 6.5 8.81767 7.18308 7.72977 8.28524L5.56738 6.09397C6.41541 5.25712 7.42115 4.59697 8.52628 4.15182C9.6314 3.70666 10.8139 3.48536 12.0052 3.50075C13.1965 3.51614 14.373 3.76791 15.4662 4.24146Z" fill="#FACA15"/>
<path id="Subtract_3" fill-rule="evenodd" clip-rule="evenodd" d="M20.8889 12.5063C20.8873 14.8638 19.9606 17.1266 18.3082 18.8082L16.2246 16.7606C17.321 15.6735 18 14.166 18 12.5C18 10.837 17.3235 9.33205 16.2306 8.24533L18.317 6.20078C19.9671 7.88462 20.8906 10.1487 20.8889 12.5063Z" fill="#FF8A4C"/>
</g>
</svg>
